<mxfile host="app.diagrams.net" modified="2022-08-24T09:21:10.718Z" agent="5.0 (Macintosh; Intel Mac OS X 10_15_7) AppleWebKit/537.36 (KHTML, like Gecko) Chrome/104.0.0.0 Safari/537.36" etag="KZ9o5SJKeN7JhsGC5Mx0" version="20.2.6" type="github">
  <diagram id="JfXqXl8T9KYwRNGQL_uL" name="第 1 页">
    <mxGraphModel dx="1426" dy="623" grid="1" gridSize="10" guides="1" tooltips="1" connect="1" arrows="1" fold="1" page="1" pageScale="1" pageWidth="827" pageHeight="1169" math="0" shadow="0">
      <root>
        <mxCell id="0" />
        <mxCell id="1" parent="0" />
        <mxCell id="XEnUnExLDT3ZHUK-NQ_2-1" value="&lt;span style=&quot;font-size: 24px;&quot;&gt;广告产品&lt;/span&gt;" style="rounded=0;whiteSpace=wrap;html=1;strokeColor=#97D077;" vertex="1" parent="1">
          <mxGeometry x="360" y="255" width="120" height="50" as="geometry" />
        </mxCell>
        <mxCell id="XEnUnExLDT3ZHUK-NQ_2-2" value="图标" style="ellipse;whiteSpace=wrap;html=1;fontSize=24;strokeColor=#97D077;" vertex="1" parent="1">
          <mxGeometry x="270" y="110" width="120" height="60" as="geometry" />
        </mxCell>
        <mxCell id="XEnUnExLDT3ZHUK-NQ_2-3" value="状态" style="ellipse;whiteSpace=wrap;html=1;fontSize=24;strokeColor=#97D077;" vertex="1" parent="1">
          <mxGeometry x="150" y="190" width="120" height="60" as="geometry" />
        </mxCell>
        <mxCell id="XEnUnExLDT3ZHUK-NQ_2-4" value="权重" style="ellipse;whiteSpace=wrap;html=1;fontSize=24;strokeColor=#97D077;" vertex="1" parent="1">
          <mxGeometry x="140" y="290" width="120" height="60" as="geometry" />
        </mxCell>
        <mxCell id="XEnUnExLDT3ZHUK-NQ_2-5" value="类型Id" style="ellipse;whiteSpace=wrap;html=1;fontSize=24;strokeColor=#97D077;" vertex="1" parent="1">
          <mxGeometry x="230" y="360" width="120" height="60" as="geometry" />
        </mxCell>
        <mxCell id="XEnUnExLDT3ZHUK-NQ_2-6" value="其他" style="ellipse;whiteSpace=wrap;html=1;fontSize=24;strokeColor=#97D077;" vertex="1" parent="1">
          <mxGeometry x="370" y="400" width="120" height="60" as="geometry" />
        </mxCell>
        <mxCell id="XEnUnExLDT3ZHUK-NQ_2-7" value="详情" style="ellipse;whiteSpace=wrap;html=1;fontSize=24;strokeColor=#97D077;" vertex="1" parent="1">
          <mxGeometry x="530" y="380" width="120" height="60" as="geometry" />
        </mxCell>
        <mxCell id="XEnUnExLDT3ZHUK-NQ_2-8" value="名称" style="ellipse;whiteSpace=wrap;html=1;fontSize=24;strokeColor=#97D077;" vertex="1" parent="1">
          <mxGeometry x="430" y="100" width="120" height="60" as="geometry" />
        </mxCell>
        <mxCell id="XEnUnExLDT3ZHUK-NQ_2-9" value="推广单价" style="ellipse;whiteSpace=wrap;html=1;fontSize=24;strokeColor=#97D077;" vertex="1" parent="1">
          <mxGeometry x="540" y="160" width="120" height="60" as="geometry" />
        </mxCell>
        <mxCell id="XEnUnExLDT3ZHUK-NQ_2-10" value="结算周期" style="ellipse;whiteSpace=wrap;html=1;fontSize=24;strokeColor=#97D077;" vertex="1" parent="1">
          <mxGeometry x="590" y="270" width="120" height="60" as="geometry" />
        </mxCell>
        <mxCell id="XEnUnExLDT3ZHUK-NQ_2-11" value="" style="endArrow=classic;html=1;rounded=0;strokeColor=#3399FF;exitX=0.5;exitY=1;exitDx=0;exitDy=0;" edge="1" parent="1" source="XEnUnExLDT3ZHUK-NQ_2-1" target="XEnUnExLDT3ZHUK-NQ_2-6">
          <mxGeometry width="50" height="50" relative="1" as="geometry">
            <mxPoint x="390" y="360" as="sourcePoint" />
            <mxPoint x="440" y="310" as="targetPoint" />
          </mxGeometry>
        </mxCell>
        <mxCell id="XEnUnExLDT3ZHUK-NQ_2-13" value="" style="endArrow=classic;html=1;rounded=0;strokeColor=#3399FF;entryX=0;entryY=0;entryDx=0;entryDy=0;exitX=0.75;exitY=1;exitDx=0;exitDy=0;" edge="1" parent="1" source="XEnUnExLDT3ZHUK-NQ_2-1" target="XEnUnExLDT3ZHUK-NQ_2-7">
          <mxGeometry width="50" height="50" relative="1" as="geometry">
            <mxPoint x="420" y="310" as="sourcePoint" />
            <mxPoint x="437.6019176990676" y="410.02397123834453" as="targetPoint" />
          </mxGeometry>
        </mxCell>
        <mxCell id="XEnUnExLDT3ZHUK-NQ_2-14" value="" style="endArrow=classic;html=1;rounded=0;strokeColor=#3399FF;exitX=1;exitY=0.75;exitDx=0;exitDy=0;entryX=0;entryY=0.5;entryDx=0;entryDy=0;" edge="1" parent="1" source="XEnUnExLDT3ZHUK-NQ_2-1" target="XEnUnExLDT3ZHUK-NQ_2-10">
          <mxGeometry width="50" height="50" relative="1" as="geometry">
            <mxPoint x="440" y="325" as="sourcePoint" />
            <mxPoint x="447.6019176990676" y="420.02397123834453" as="targetPoint" />
          </mxGeometry>
        </mxCell>
        <mxCell id="XEnUnExLDT3ZHUK-NQ_2-15" value="" style="endArrow=classic;html=1;rounded=0;strokeColor=#3399FF;exitX=1;exitY=0.25;exitDx=0;exitDy=0;entryX=0;entryY=1;entryDx=0;entryDy=0;" edge="1" parent="1" source="XEnUnExLDT3ZHUK-NQ_2-1" target="XEnUnExLDT3ZHUK-NQ_2-9">
          <mxGeometry width="50" height="50" relative="1" as="geometry">
            <mxPoint x="450" y="335" as="sourcePoint" />
            <mxPoint x="457.6019176990676" y="430.02397123834453" as="targetPoint" />
          </mxGeometry>
        </mxCell>
        <mxCell id="XEnUnExLDT3ZHUK-NQ_2-16" value="" style="endArrow=classic;html=1;rounded=0;strokeColor=#3399FF;exitX=0.75;exitY=0;exitDx=0;exitDy=0;" edge="1" parent="1" source="XEnUnExLDT3ZHUK-NQ_2-1" target="XEnUnExLDT3ZHUK-NQ_2-8">
          <mxGeometry width="50" height="50" relative="1" as="geometry">
            <mxPoint x="460" y="345" as="sourcePoint" />
            <mxPoint x="467.6019176990676" y="440.02397123834453" as="targetPoint" />
          </mxGeometry>
        </mxCell>
        <mxCell id="XEnUnExLDT3ZHUK-NQ_2-17" value="" style="endArrow=classic;html=1;rounded=0;strokeColor=#3399FF;exitX=0.35;exitY=0.02;exitDx=0;exitDy=0;exitPerimeter=0;entryX=0.658;entryY=0.983;entryDx=0;entryDy=0;entryPerimeter=0;" edge="1" parent="1" source="XEnUnExLDT3ZHUK-NQ_2-1" target="XEnUnExLDT3ZHUK-NQ_2-2">
          <mxGeometry width="50" height="50" relative="1" as="geometry">
            <mxPoint x="470" y="355" as="sourcePoint" />
            <mxPoint x="477.6019176990676" y="450.02397123834453" as="targetPoint" />
          </mxGeometry>
        </mxCell>
        <mxCell id="XEnUnExLDT3ZHUK-NQ_2-18" value="" style="endArrow=classic;html=1;rounded=0;strokeColor=#3399FF;exitX=0;exitY=0.25;exitDx=0;exitDy=0;entryX=0.967;entryY=0.733;entryDx=0;entryDy=0;entryPerimeter=0;" edge="1" parent="1" source="XEnUnExLDT3ZHUK-NQ_2-1" target="XEnUnExLDT3ZHUK-NQ_2-3">
          <mxGeometry width="50" height="50" relative="1" as="geometry">
            <mxPoint x="480" y="365" as="sourcePoint" />
            <mxPoint x="260" y="230" as="targetPoint" />
          </mxGeometry>
        </mxCell>
        <mxCell id="XEnUnExLDT3ZHUK-NQ_2-19" value="" style="endArrow=classic;html=1;rounded=0;strokeColor=#3399FF;exitX=0;exitY=0.75;exitDx=0;exitDy=0;entryX=1;entryY=0.5;entryDx=0;entryDy=0;" edge="1" parent="1" source="XEnUnExLDT3ZHUK-NQ_2-1" target="XEnUnExLDT3ZHUK-NQ_2-4">
          <mxGeometry width="50" height="50" relative="1" as="geometry">
            <mxPoint x="490" y="375" as="sourcePoint" />
            <mxPoint x="497.6019176990676" y="470.02397123834453" as="targetPoint" />
          </mxGeometry>
        </mxCell>
        <mxCell id="XEnUnExLDT3ZHUK-NQ_2-20" value="" style="endArrow=classic;html=1;rounded=0;strokeColor=#3399FF;exitX=0.25;exitY=1;exitDx=0;exitDy=0;" edge="1" parent="1" source="XEnUnExLDT3ZHUK-NQ_2-1" target="XEnUnExLDT3ZHUK-NQ_2-5">
          <mxGeometry width="50" height="50" relative="1" as="geometry">
            <mxPoint x="500" y="385" as="sourcePoint" />
            <mxPoint x="507.6019176990676" y="480.02397123834453" as="targetPoint" />
          </mxGeometry>
        </mxCell>
      </root>
    </mxGraphModel>
  </diagram>
</mxfile>
